 <svg
      fill="#67797F"
      width="152"
      height="20"
      viewBox="0 0 152 20"
      xmlns="http://www.w3.org/2000/svg"
    >
      <g opacity="0.5">
        <path
          opacity="0.6"
          fill-rule="evenodd"
          clip-rule="evenodd"
          d="M15.2163 10.9328C13.9583 10.289 12.2797 10.0726 11.2939 9.9993C12.6357 9.89984 15.2617 9.53515 16.3609 8.18808C18.0813 6.90033 17.9993 2.54328 17.9993 2.54328C17.9993 2.54328 13.871 2.08786 12.0686 4.14337C10.9484 5.25837 10.6012 7.19522 10.5 8.54404C10.3988 7.19697 10.0515 5.25837 8.93135 4.14337C7.12892 2.08611 3.0006 2.54328 3.0006 2.54328C3.0006 2.54328 2.95 5.26011 3.77532 7.03818C4.18187 7.91413 4.92517 8.6278 5.78364 9.06751C7.04168 9.71139 8.72022 9.92776 9.70607 10.001C8.72022 10.0743 7.04168 10.2907 5.78364 10.9346C4.92517 11.3743 4.18187 12.088 3.77532 12.9639C2.95 14.7402 3.0006 17.4571 3.0006 17.4571C3.0006 17.4571 7.12892 17.9125 8.93135 15.857C10.0515 14.742 10.3988 12.8034 10.5 11.4563C10.6012 12.8034 10.9484 14.742 12.0686 15.857C13.871 17.9125 17.9993 17.4571 17.9993 17.4571C17.9993 17.4571 18.0517 14.7402 17.2246 12.9622C16.8181 12.0862 16.0748 11.3725 15.2163 10.9328ZM15.3541 14.7437C15.3332 14.7385 13.1783 14.1243 10.4127 10.4303C9.60137 11.0637 7.56339 12.7388 5.62311 15.0264L5.53587 15.1293L5.57077 14.9985C5.576 14.9758 6.20764 12.7563 10.055 9.9295C9.68338 9.37811 8.80921 8.10956 5.43467 5.12052L5.35964 5.05421L5.4591 5.06817C5.53064 5.07864 7.26502 5.35085 10.4337 9.43395C10.4337 9.43395 10.4738 9.48978 10.5471 9.5875C10.9938 9.27865 12.2867 8.36082 15.1936 5.0769L15.2599 5.00187L15.246 5.10133C15.2355 5.17287 14.9633 6.89859 10.9065 10.0551C11.6725 11.0218 13.2568 12.8889 15.3821 14.6896L15.4868 14.7786L15.3559 14.7437H15.3541Z"
        />
        <path
          d="M29.099 8.14453C29.056 7.74136 28.8744 7.42744 28.5543 7.20277C28.2373 6.9781 27.8249 6.86577 27.3171 6.86577C26.9601 6.86577 26.6539 6.91963 26.3984 7.02734C26.143 7.13506 25.9475 7.28125 25.8121 7.46591C25.6767 7.65057 25.6075 7.86139 25.6044 8.09837C25.6044 8.29534 25.649 8.46615 25.7383 8.6108C25.8306 8.75544 25.9552 8.87855 26.1122 8.98011C26.2691 9.0786 26.443 9.16169 26.6339 9.2294C26.8247 9.29711 27.017 9.35405 27.2109 9.40021L28.0973 9.6218C28.4543 9.7049 28.7974 9.81723 29.1267 9.95881C29.4591 10.1004 29.7561 10.2789 30.0177 10.4943C30.2824 10.7098 30.4917 10.9698 30.6456 11.2745C30.7995 11.5792 30.8764 11.9362 30.8764 12.3455C30.8764 12.8995 30.7348 13.3873 30.4517 13.8089C30.1685 14.2275 29.7592 14.5553 29.2237 14.7923C28.6913 15.0262 28.0465 15.1431 27.2894 15.1431C26.5538 15.1431 25.9152 15.0292 25.3736 14.8015C24.835 14.5737 24.4133 14.2414 24.1086 13.8043C23.807 13.3673 23.6439 12.8349 23.6193 12.207H25.3043C25.3289 12.5363 25.4305 12.8103 25.609 13.0288C25.7875 13.2473 26.0199 13.4104 26.3061 13.5181C26.5954 13.6258 26.9185 13.6797 27.2755 13.6797C27.6479 13.6797 27.9742 13.6243 28.2542 13.5135C28.5374 13.3996 28.759 13.2427 28.919 13.0426C29.079 12.8395 29.1606 12.6025 29.1637 12.3317C29.1606 12.0855 29.0883 11.8823 28.9467 11.7223C28.8051 11.5592 28.6066 11.4238 28.3512 11.3161C28.0988 11.2053 27.8034 11.1068 27.4648 11.0206L26.3892 10.7436C25.6105 10.5436 24.995 10.2404 24.5426 9.83416C24.0932 9.42483 23.8686 8.88163 23.8686 8.20454C23.8686 7.64749 24.0194 7.15968 24.321 6.74112C24.6257 6.32256 25.0396 5.99787 25.5628 5.76704C26.086 5.53314 26.6785 5.41619 27.3402 5.41619C28.0111 5.41619 28.5989 5.53314 29.1037 5.76704C29.6115 5.99787 30.01 6.31948 30.2993 6.73189C30.5886 7.14122 30.7379 7.6121 30.7471 8.14453H29.099ZM34.9486 15.1385C34.2377 15.1385 33.6237 14.9908 33.1067 14.6953C32.5927 14.3968 32.1972 13.9751 31.9202 13.4304C31.6432 12.8826 31.5047 12.2378 31.5047 11.4961C31.5047 10.7667 31.6432 10.1265 31.9202 9.57564C32.2003 9.02166 32.5912 8.59079 33.0928 8.28303C33.5945 7.97218 34.1838 7.81676 34.8609 7.81676C35.2979 7.81676 35.7104 7.88755 36.0981 8.02912C36.489 8.16761 36.8337 8.38305 37.1322 8.67543C37.4338 8.9678 37.6708 9.3402 37.8432 9.79261C38.0155 10.242 38.1017 10.7775 38.1017 11.3991V11.9116H32.2895V10.7852H36.4998C36.4967 10.4651 36.4274 10.1804 36.292 9.93111C36.1566 9.67874 35.9673 9.48023 35.7242 9.33558C35.4841 9.19093 35.2041 9.11861 34.884 9.11861C34.5424 9.11861 34.2423 9.2017 33.9838 9.3679C33.7253 9.53101 33.5237 9.74645 33.379 10.0142C33.2375 10.2789 33.1651 10.5697 33.1621 10.8867V11.87C33.1621 12.2824 33.2375 12.6364 33.3883 12.9318C33.5391 13.2242 33.7499 13.4489 34.0207 13.6058C34.2916 13.7597 34.6086 13.8366 34.9717 13.8366C35.2149 13.8366 35.4349 13.8028 35.6319 13.7351C35.8288 13.6643 35.9997 13.5612 36.1443 13.4258C36.289 13.2904 36.3982 13.1226 36.4721 12.9226L38.0324 13.098C37.934 13.5104 37.7462 13.8705 37.4692 14.1783C37.1953 14.483 36.8445 14.7199 36.4167 14.8892C35.9889 15.0554 35.4995 15.1385 34.9486 15.1385ZM42.0885 15.1385C41.3807 15.1385 40.7728 14.9831 40.265 14.6722C39.7603 14.3614 39.371 13.9321 39.097 13.3842C38.8262 12.8333 38.6908 12.1993 38.6908 11.4822C38.6908 10.7621 38.8293 10.1265 39.1063 9.57564C39.3833 9.02166 39.7741 8.59079 40.2789 8.28303C40.7867 7.97218 41.3868 7.81676 42.0793 7.81676C42.6548 7.81676 43.1642 7.92294 43.6073 8.1353C44.0536 8.34458 44.4091 8.64157 44.6738 9.02628C44.9384 9.40791 45.0892 9.85417 45.1262 10.3651H43.5289C43.4642 10.0234 43.3104 9.73875 43.0672 9.51101C42.8272 9.28018 42.5055 9.16477 42.1024 9.16477C41.7608 9.16477 41.4607 9.2571 41.2022 9.44176C40.9436 9.62334 40.7421 9.88494 40.5974 10.2266C40.4558 10.5682 40.385 10.9775 40.385 11.4545C40.385 11.9377 40.4558 12.3532 40.5974 12.701C40.739 13.0457 40.9375 13.3119 41.1929 13.4996C41.4514 13.6843 41.7546 13.7766 42.1024 13.7766C42.3486 13.7766 42.5686 13.7305 42.7625 13.6381C42.9595 13.5427 43.1242 13.4058 43.2565 13.2273C43.3888 13.0488 43.4796 12.8318 43.5289 12.5763H45.1262C45.0862 13.078 44.9384 13.5227 44.683 13.9105C44.4275 14.2952 44.0798 14.5968 43.6397 14.8153C43.1996 15.0308 42.6825 15.1385 42.0885 15.1385ZM50.4979 12.0178V7.90909H52.1691V15H50.5487V13.7397H50.4749C50.3148 14.1367 50.0517 14.4614 49.6854 14.7138C49.3223 14.9661 48.8745 15.0923 48.3421 15.0923C47.8773 15.0923 47.4665 14.9892 47.1095 14.783C46.7555 14.5737 46.4785 14.2706 46.2785 13.8736C46.0784 13.4735 45.9784 12.9903 45.9784 12.424V7.90909H47.6496V12.1655C47.6496 12.6148 47.7727 12.9718 48.0189 13.2365C48.2651 13.5012 48.5883 13.6335 48.9884 13.6335C49.2346 13.6335 49.4731 13.5735 49.7039 13.4535C49.9347 13.3335 50.124 13.1549 50.2717 12.918C50.4225 12.6779 50.4979 12.3778 50.4979 12.0178ZM53.3676 15V7.90909H54.988V9.09091H55.0618C55.1911 8.68158 55.4127 8.36612 55.7266 8.14453C56.0436 7.91986 56.4052 7.80753 56.8115 7.80753C56.9038 7.80753 57.0069 7.81214 57.1208 7.82138C57.2377 7.82753 57.3347 7.8383 57.4116 7.85369V9.39098C57.3408 9.36636 57.2285 9.34482 57.0746 9.32635C56.9238 9.30481 56.7776 9.29403 56.6361 9.29403C56.3314 9.29403 56.0575 9.3602 55.8143 9.49254C55.5743 9.6218 55.385 9.80185 55.2465 10.0327C55.108 10.2635 55.0388 10.5297 55.0388 10.8313V15H53.3676ZM60.8491 15.1385C60.1382 15.1385 59.5242 14.9908 59.0071 14.6953C58.4932 14.3968 58.0977 13.9751 57.8207 13.4304C57.5437 12.8826 57.4052 12.2378 57.4052 11.4961C57.4052 10.7667 57.5437 10.1265 57.8207 9.57564C58.1008 9.02166 58.4916 8.59079 58.9933 8.28303C59.4949 7.97218 60.0843 7.81676 60.7614 7.81676C61.1984 7.81676 61.6108 7.88755 61.9986 8.02912C62.3895 8.16761 62.7342 8.38305 63.0327 8.67543C63.3343 8.9678 63.5713 9.3402 63.7436 9.79261C63.916 10.242 64.0022 10.7775 64.0022 11.3991V11.9116H58.19V10.7852H62.4002C62.3972 10.4651 62.3279 10.1804 62.1925 9.93111C62.0571 9.67874 61.8678 9.48023 61.6247 9.33558C61.3846 9.19093 61.1045 9.11861 60.7845 9.11861C60.4429 9.11861 60.1428 9.2017 59.8843 9.3679C59.6257 9.53101 59.4242 9.74645 59.2795 10.0142C59.1379 10.2789 59.0656 10.5697 59.0625 10.8867V11.87C59.0625 12.2824 59.1379 12.6364 59.2887 12.9318C59.4395 13.2242 59.6504 13.4489 59.9212 13.6058C60.192 13.7597 60.509 13.8366 60.8722 13.8366C61.1153 13.8366 61.3354 13.8028 61.5323 13.7351C61.7293 13.6643 61.9001 13.5612 62.0448 13.4258C62.1894 13.2904 62.2987 13.1226 62.3725 12.9226L63.9329 13.098C63.8344 13.5104 63.6467 13.8705 63.3697 14.1783C63.0958 14.483 62.7449 14.7199 62.3171 14.8892C61.8894 15.0554 61.4 15.1385 60.8491 15.1385ZM67.5273 15.1246C66.9703 15.1246 66.4717 14.9815 66.0316 14.6953C65.5915 14.4091 65.2437 13.9936 64.9883 13.4489C64.7328 12.9041 64.6051 12.2424 64.6051 11.4638C64.6051 10.6759 64.7344 10.0111 64.9929 9.46946C65.2545 8.92472 65.6069 8.51385 66.0501 8.23686C66.4933 7.95679 66.9872 7.81676 67.532 7.81676C67.9474 7.81676 68.2891 7.88755 68.5568 8.02912C68.8246 8.16761 69.0369 8.33535 69.1939 8.53232C69.3509 8.72621 69.4724 8.90933 69.5586 9.08168H69.6278V5.54545H71.3036V15H69.6602V13.8828H69.5586C69.4724 14.0552 69.3478 14.2383 69.1847 14.4322C69.0215 14.623 68.8061 14.7861 68.5384 14.9215C68.2706 15.0569 67.9336 15.1246 67.5273 15.1246ZM67.9936 13.7536C68.3475 13.7536 68.6491 13.6581 68.8984 13.4673C69.1477 13.2734 69.337 13.0041 69.4663 12.6594C69.5955 12.3147 69.6602 11.9131 69.6602 11.4545C69.6602 10.996 69.5955 10.5974 69.4663 10.2589C69.3401 9.92034 69.1523 9.6572 68.9031 9.46946C68.6568 9.28172 68.3537 9.18785 67.9936 9.18785C67.6212 9.18785 67.3104 9.2848 67.0611 9.47869C66.8118 9.67259 66.6241 9.94034 66.4979 10.282C66.3717 10.6236 66.3086 11.0144 66.3086 11.4545C66.3086 11.8977 66.3717 12.2932 66.4979 12.641C66.6271 12.9857 66.8164 13.258 67.0657 13.4581C67.3181 13.6551 67.6274 13.7536 67.9936 13.7536ZM75.3429 15V5.54545H77.0141V9.08168H77.0833C77.1695 8.90933 77.2911 8.72621 77.448 8.53232C77.605 8.33535 77.8173 8.16761 78.0851 8.02912C78.3528 7.88755 78.6945 7.81676 79.1099 7.81676C79.6578 7.81676 80.1517 7.95679 80.5918 8.23686C81.035 8.51385 81.3859 8.92472 81.6444 9.46946C81.906 10.0111 82.0368 10.6759 82.0368 11.4638C82.0368 12.2424 81.9091 12.9041 81.6536 13.4489C81.3982 13.9936 81.0504 14.4091 80.6103 14.6953C80.1702 14.9815 79.6716 15.1246 79.1146 15.1246C78.7083 15.1246 78.3713 15.0569 78.1036 14.9215C77.8358 14.7861 77.6204 14.623 77.4572 14.4322C77.2972 14.2383 77.1726 14.0552 77.0833 13.8828H76.9864V15H75.3429ZM76.9818 11.4545C76.9818 11.9131 77.0464 12.3147 77.1756 12.6594C77.308 13.0041 77.4973 13.2734 77.7435 13.4673C77.9928 13.6581 78.2944 13.7536 78.6483 13.7536C79.0176 13.7536 79.3269 13.6551 79.5762 13.4581C79.8255 13.258 80.0132 12.9857 80.1394 12.641C80.2687 12.2932 80.3333 11.8977 80.3333 11.4545C80.3333 11.0144 80.2702 10.6236 80.144 10.282C80.0179 9.94034 79.8301 9.67259 79.5808 9.47869C79.3315 9.2848 79.0207 9.18785 78.6483 9.18785C78.2913 9.18785 77.9881 9.28172 77.7389 9.46946C77.4896 9.6572 77.3003 9.92034 77.171 10.2589C77.0448 10.5974 76.9818 10.996 76.9818 11.4545ZM83.735 17.6591C83.5073 17.6591 83.2964 17.6406 83.1026 17.6037C82.9117 17.5698 82.7594 17.5298 82.6455 17.4837L83.0333 16.1818C83.2764 16.2526 83.4934 16.2865 83.6842 16.2834C83.875 16.2803 84.0428 16.2203 84.1874 16.1033C84.3352 15.9895 84.4598 15.7987 84.5614 15.5309L84.7045 15.1477L82.1331 7.90909H83.9058L85.5401 13.2642H85.6139L87.2528 7.90909H89.0301L86.191 15.8587C86.0586 16.2341 85.8832 16.5558 85.6647 16.8235C85.4462 17.0943 85.1784 17.3005 84.8614 17.4421C84.5475 17.5868 84.172 17.6591 83.735 17.6591ZM100.538 8.73544H98.8111C98.7619 8.4523 98.6711 8.20147 98.5388 7.98295C98.4064 7.76136 98.2418 7.57363 98.0448 7.41974C97.8478 7.26586 97.6232 7.15045 97.3708 7.07351C97.1215 6.99349 96.8522 6.95348 96.5629 6.95348C96.0489 6.95348 95.5934 7.08274 95.1964 7.34126C94.7994 7.59671 94.4886 7.97218 94.2639 8.46768C94.0392 8.96011 93.9269 9.56179 93.9269 10.2727C93.9269 10.996 94.0392 11.6054 94.2639 12.1009C94.4916 12.5933 94.8025 12.9657 95.1964 13.218C95.5934 13.4673 96.0474 13.592 96.5583 13.592C96.8414 13.592 97.1061 13.555 97.3523 13.4812C97.6016 13.4042 97.8247 13.2919 98.0217 13.1442C98.2218 12.9964 98.3895 12.8149 98.5249 12.5994C98.6634 12.384 98.7588 12.1378 98.8111 11.8608L100.538 11.87C100.473 12.3194 100.333 12.741 100.118 13.1349C99.9052 13.5289 99.6267 13.8767 99.282 14.1783C98.9373 14.4768 98.5341 14.7107 98.0725 14.88C97.6108 15.0462 97.0984 15.1293 96.5352 15.1293C95.7042 15.1293 94.9625 14.9369 94.3101 14.5522C93.6576 14.1675 93.1436 13.612 92.7682 12.8857C92.3927 12.1593 92.205 11.2884 92.205 10.2727C92.205 9.25402 92.3942 8.38305 92.7728 7.6598C93.1513 6.93348 93.6668 6.37796 94.3193 5.99325C94.9718 5.60855 95.7104 5.41619 96.5352 5.41619C97.0615 5.41619 97.5508 5.49006 98.0032 5.63778C98.4557 5.78551 98.8588 6.00249 99.2128 6.28871C99.5667 6.57185 99.8575 6.91963 100.085 7.33203C100.316 7.74136 100.467 8.20916 100.538 8.73544ZM101.512 15V7.90909H103.133V9.09091H103.207C103.336 8.68158 103.557 8.36612 103.871 8.14453C104.188 7.91986 104.55 7.80753 104.956 7.80753C105.049 7.80753 105.152 7.81214 105.265 7.82138C105.382 7.82753 105.479 7.8383 105.556 7.85369V9.39098C105.486 9.36636 105.373 9.34482 105.219 9.32635C105.069 9.30481 104.922 9.29403 104.781 9.29403C104.476 9.29403 104.202 9.3602 103.959 9.49254C103.719 9.6218 103.53 9.80185 103.391 10.0327C103.253 10.2635 103.183 10.5297 103.183 10.8313V15H101.512ZM108.948 15.1385C108.255 15.1385 107.655 14.9862 107.147 14.6815C106.639 14.3768 106.245 13.9505 105.965 13.4027C105.688 12.8549 105.55 12.2147 105.55 11.4822C105.55 10.7498 105.688 10.1081 105.965 9.55717C106.245 9.00627 106.639 8.57848 107.147 8.27379C107.655 7.96911 108.255 7.81676 108.948 7.81676C109.64 7.81676 110.24 7.96911 110.748 8.27379C111.256 8.57848 111.648 9.00627 111.925 9.55717C112.205 10.1081 112.345 10.7498 112.345 11.4822C112.345 12.2147 112.205 12.8549 111.925 13.4027C111.648 13.9505 111.256 14.3768 110.748 14.6815C110.24 14.9862 109.64 15.1385 108.948 15.1385ZM108.957 13.7997C109.332 13.7997 109.646 13.6966 109.899 13.4904C110.151 13.2811 110.339 13.0011 110.462 12.6502C110.588 12.2994 110.651 11.9085 110.651 11.4776C110.651 11.0437 110.588 10.6513 110.462 10.3004C110.339 9.9465 110.151 9.66489 109.899 9.45561C109.646 9.24633 109.332 9.14169 108.957 9.14169C108.572 9.14169 108.252 9.24633 107.997 9.45561C107.744 9.66489 107.555 9.9465 107.429 10.3004C107.306 10.6513 107.244 11.0437 107.244 11.4776C107.244 11.9085 107.306 12.2994 107.429 12.6502C107.555 13.0011 107.744 13.2811 107.997 13.4904C108.252 13.6966 108.572 13.7997 108.957 13.7997ZM118.848 9.78338L117.325 9.94957C117.282 9.79569 117.206 9.65104 117.099 9.51562C116.994 9.38021 116.852 9.27095 116.674 9.18785C116.495 9.10476 116.277 9.06321 116.018 9.06321C115.67 9.06321 115.378 9.13861 115.141 9.28942C114.907 9.44022 114.792 9.63565 114.795 9.87571C114.792 10.0819 114.867 10.2496 115.021 10.3789C115.178 10.5082 115.437 10.6143 115.797 10.6974L117.006 10.956C117.677 11.1006 118.176 11.3299 118.502 11.6438C118.831 11.9577 118.997 12.3686 119.001 12.8764C118.997 13.3227 118.867 13.7166 118.608 14.0582C118.353 14.3968 117.997 14.6615 117.542 14.8523C117.086 15.0431 116.563 15.1385 115.972 15.1385C115.104 15.1385 114.406 14.9569 113.876 14.5938C113.347 14.2275 113.031 13.7182 112.93 13.0657L114.559 12.9087C114.633 13.2288 114.79 13.4704 115.03 13.6335C115.27 13.7966 115.583 13.8782 115.967 13.8782C116.365 13.8782 116.683 13.7966 116.923 13.6335C117.166 13.4704 117.288 13.2688 117.288 13.0288C117.288 12.8256 117.209 12.6579 117.052 12.5256C116.898 12.3932 116.658 12.2917 116.332 12.2209L115.123 11.967C114.443 11.8254 113.939 11.5869 113.613 11.2514C113.287 10.9129 113.125 10.4851 113.128 9.96804C113.125 9.53101 113.244 9.15246 113.484 8.83239C113.727 8.50923 114.064 8.25994 114.495 8.08452C114.929 7.90601 115.429 7.81676 115.995 7.81676C116.826 7.81676 117.48 7.99373 117.957 8.34766C118.437 8.70159 118.734 9.18016 118.848 9.78338ZM125.463 9.78338L123.939 9.94957C123.896 9.79569 123.821 9.65104 123.713 9.51562C123.609 9.38021 123.467 9.27095 123.289 9.18785C123.11 9.10476 122.892 9.06321 122.633 9.06321C122.285 9.06321 121.993 9.13861 121.756 9.28942C121.522 9.44022 121.407 9.63565 121.41 9.87571C121.407 10.0819 121.482 10.2496 121.636 10.3789C121.793 10.5082 122.051 10.6143 122.411 10.6974L123.621 10.956C124.292 11.1006 124.79 11.3299 125.117 11.6438C125.446 11.9577 125.612 12.3686 125.615 12.8764C125.612 13.3227 125.481 13.7166 125.223 14.0582C124.967 14.3968 124.612 14.6615 124.156 14.8523C123.701 15.0431 123.178 15.1385 122.587 15.1385C121.719 15.1385 121.02 14.9569 120.491 14.5938C119.962 14.2275 119.646 13.7182 119.545 13.0657L121.174 12.9087C121.248 13.2288 121.405 13.4704 121.645 13.6335C121.885 13.7966 122.198 13.8782 122.582 13.8782C122.979 13.8782 123.298 13.7966 123.538 13.6335C123.781 13.4704 123.903 13.2688 123.903 13.0288C123.903 12.8256 123.824 12.6579 123.667 12.5256C123.513 12.3932 123.273 12.2917 122.947 12.2209L121.737 11.967C121.057 11.8254 120.554 11.5869 120.228 11.2514C119.902 10.9129 119.74 10.4851 119.743 9.96804C119.74 9.53101 119.859 9.15246 120.099 8.83239C120.342 8.50923 120.679 8.25994 121.11 8.08452C121.544 7.90601 122.044 7.81676 122.61 7.81676C123.441 7.81676 124.095 7.99373 124.572 8.34766C125.052 8.70159 125.349 9.18016 125.463 9.78338ZM126.473 15V7.90909H128.071V9.11399H128.154C128.301 8.70774 128.546 8.39074 128.888 8.163C129.229 7.93217 129.637 7.81676 130.111 7.81676C130.591 7.81676 130.996 7.93371 131.325 8.16761C131.658 8.39844 131.892 8.7139 132.027 9.11399H132.101C132.258 8.72005 132.522 8.40613 132.895 8.17223C133.27 7.93525 133.715 7.81676 134.229 7.81676C134.881 7.81676 135.414 8.02296 135.826 8.43537C136.239 8.84777 136.445 9.44946 136.445 10.2404V15H134.769V10.4989C134.769 10.0588 134.652 9.73722 134.418 9.53409C134.184 9.32789 133.898 9.22479 133.56 9.22479C133.156 9.22479 132.841 9.35097 132.613 9.60334C132.389 9.85263 132.276 10.1773 132.276 10.5774V15H130.637V10.4297C130.637 10.0634 130.527 9.77107 130.305 9.55256C130.086 9.33404 129.8 9.22479 129.446 9.22479C129.206 9.22479 128.988 9.28634 128.791 9.40945C128.594 9.52947 128.437 9.70028 128.32 9.92188C128.203 10.1404 128.144 10.3958 128.144 10.6882V15H126.473ZM137.62 15V7.90909H139.291V15H137.62ZM138.46 6.9027C138.196 6.9027 137.968 6.81499 137.777 6.63956C137.586 6.46106 137.491 6.24716 137.491 5.99787C137.491 5.7455 137.586 5.5316 137.777 5.35618C137.968 5.17767 138.196 5.08842 138.46 5.08842C138.728 5.08842 138.956 5.17767 139.144 5.35618C139.335 5.5316 139.43 5.7455 139.43 5.99787C139.43 6.24716 139.335 6.46106 139.144 6.63956C138.956 6.81499 138.728 6.9027 138.46 6.9027ZM142.161 10.8452V15H140.49V7.90909H142.087V9.11399H142.17C142.333 8.71697 142.594 8.40151 142.951 8.16761C143.311 7.93371 143.755 7.81676 144.285 7.81676C144.774 7.81676 145.2 7.9214 145.563 8.13068C145.93 8.33996 146.213 8.64311 146.413 9.04013C146.616 9.43714 146.716 9.9188 146.713 10.4851V15H145.042V10.7436C145.042 10.2696 144.919 9.89879 144.672 9.63104C144.429 9.36328 144.092 9.2294 143.661 9.2294C143.369 9.2294 143.109 9.29403 142.881 9.4233C142.657 9.54948 142.48 9.7326 142.35 9.97266C142.224 10.2127 142.161 10.5036 142.161 10.8452ZM151.433 7.90909V9.2017H147.356V7.90909H151.433ZM148.363 6.21023H150.034V12.8672C150.034 13.0919 150.068 13.2642 150.135 13.3842C150.206 13.5012 150.299 13.5812 150.412 13.6243C150.526 13.6674 150.652 13.6889 150.791 13.6889C150.896 13.6889 150.991 13.6812 151.077 13.6658C151.166 13.6504 151.234 13.6366 151.28 13.6243L151.562 14.9308C151.473 14.9615 151.345 14.9954 151.179 15.0323C151.016 15.0692 150.816 15.0908 150.579 15.0969C150.16 15.1093 149.783 15.0462 149.448 14.9077C149.112 14.7661 148.846 14.5476 148.649 14.2521C148.455 13.9567 148.36 13.5874 148.363 13.1442V6.21023Z"
        />
      </g>
    </svg>