<?xml version="1.0" encoding="UTF-8"?>
<svg id="Capa_2" xmlns="http://www.w3.org/2000/svg" xmlns:xlink="http://www.w3.org/1999/xlink" viewBox="0 0 459.17 85.97">
  <defs>
    <style>
      .cls-1 {
        fill: url(#Degradado_sin_nombre_21);
      }

      .cls-1, .cls-2 {
        fill-rule: evenodd;
      }

      .cls-2, .cls-3 {
        fill: #222;
      }
    </style>
    <linearGradient id="Degradado_sin_nombre_21" data-name="Degradado sin nombre 21" x1=".12" y1=".13" x2="85.84" y2="85.84" gradientUnits="userSpaceOnUse">
      <stop offset="0" stop-color="#5edd4d"/>
      <stop offset="1" stop-color="#05ce6c"/>
    </linearGradient>
  </defs>
  <g id="Capa_1-2" data-name="Capa_1">
    <g id="SUBSTRACT">
      <g>
        <path class="cls-3" d="M372.65,9.51c0-3.4,2.75-6.15,6.07-6.15s6.15,2.75,6.15,6.15-2.75,6.07-6.15,6.07-6.07-2.67-6.07-6.07Z"/>
        <path class="cls-3" d="M450.48,11.39v12.7h8.61v8.78h-8.61v19.26c0,3.67,1.62,5.2,5.29,5.2,1.36,0,2.98-.26,3.41-.34v8.18c-.6.26-2.47.94-6.05.94-7.67,0-12.44-4.6-12.44-12.36v-20.88h-7.67v-8.78h2.14s6.38,0,6.38,0v-6.26c0-.07,0-.15,0-.22v-6.22h8.95Z"/>
        <path class="cls-3" d="M112.53,55.81c1.9,3.29,4.49,5.91,7.78,7.86,3.34,1.9,7.09,2.85,11.25,2.85,3.03,0,5.83-.51,8.4-1.54,2.57-1.08,4.78-2.54,6.63-4.39,1.85-1.9,3.18-4.03,4.01-6.39l-8.86-4.01c-.77,2.16-2.05,3.88-3.85,5.16-1.8,1.28-3.9,1.93-6.32,1.93-2.21,0-4.19-.54-5.93-1.62-1.69-1.08-3.03-2.57-4.01-4.47-.98-1.9-1.46-4.08-1.46-6.55s.49-4.65,1.46-6.55c.98-1.9,2.31-3.39,4.01-4.47,1.75-1.08,3.72-1.62,5.93-1.62,2.36,0,4.44.64,6.24,1.93,1.85,1.28,3.16,2.98,3.93,5.08l8.86-3.85c-.82-2.52-2.18-4.67-4.08-6.47-1.85-1.85-4.06-3.29-6.63-4.31-2.57-1.08-5.34-1.62-8.32-1.62-4.16,0-7.91.95-11.25,2.85-3.29,1.9-5.88,4.49-7.78,7.78-1.9,3.29-2.85,7.01-2.85,11.17s.95,7.91,2.85,11.25Z"/>
        <path class="cls-3" d="M165.54,23.69h-9.48v41.91h10.09v-23.34c0-3.18.87-5.65,2.62-7.4,1.75-1.8,4.06-2.7,6.93-2.7h3.62v-8.94h-2.47c-2.93,0-5.44.62-7.55,1.85-1.58.95-2.83,2.45-3.77,4.51v-5.9Z"/>
        <path class="cls-2" d="M202.9,22.81c12.44,0,21.57,9.29,21.57,21.99s-9.12,22.08-21.57,22.08-21.48-9.29-21.48-22.08,9.12-21.99,21.48-21.99ZM202.9,58.01c6.14,0,11.59-4.52,11.59-13.21s-5.46-13.04-11.59-13.04-11.59,4.43-11.59,13.04,5.54,13.21,11.59,13.21Z"/>
        <path class="cls-3" d="M236.39,51.96l-8.61,2.39c.51,4.69,5.11,12.53,17.13,12.53,10.57,0,15.68-6.99,15.68-13.3s-4.09-10.91-11.93-12.62l-6.31-1.28c-2.56-.51-4.18-2.13-4.18-4.35,0-2.56,2.47-4.77,5.97-4.77,5.54,0,7.33,3.84,7.67,6.22l8.35-2.39c-.68-4.09-4.43-11.59-16.02-11.59-8.61,0-15.26,6.14-15.26,13.38,0,5.71,3.84,10.48,11.17,12.1l6.14,1.36c3.32.68,4.86,2.39,4.86,4.6,0,2.56-2.13,4.77-6.22,4.77-5.28,0-8.1-3.32-8.44-7.07Z"/>
        <path class="cls-3" d="M263.91,54.35l8.61-2.39c.34,3.75,3.15,7.07,8.44,7.07,4.09,0,6.22-2.22,6.22-4.77,0-2.22-1.53-3.92-4.86-4.6l-6.14-1.36c-7.33-1.62-11.17-6.39-11.17-12.1,0-7.25,6.65-13.38,15.26-13.38,11.59,0,15.34,7.5,16.02,11.59l-8.35,2.39c-.34-2.39-2.13-6.22-7.67-6.22-3.49,0-5.97,2.22-5.97,4.77,0,2.22,1.62,3.84,4.18,4.35l6.31,1.28c7.84,1.7,11.93,6.48,11.93,12.62s-5.11,13.3-15.68,13.3c-12.02,0-16.62-7.84-17.13-12.53Z"/>
        <path class="cls-3" d="M312.63,23.69h-9.48v41.91h10.09v-24.58c0-1.85.33-3.44,1-4.78.67-1.34,1.62-2.36,2.85-3.08,1.23-.77,2.65-1.16,4.24-1.16s3.06.39,4.24,1.16c1.23.72,2.18,1.75,2.85,3.08.67,1.34,1,2.93,1,4.78v24.58h10.09v-24.58c0-1.85.33-3.44,1-4.78.67-1.34,1.62-2.36,2.85-3.08,1.23-.77,2.65-1.16,4.24-1.16,1.69,0,3.13.39,4.31,1.16,1.18.72,2.11,1.75,2.77,3.08.67,1.34,1,2.93,1,4.78v24.58h10.09v-26.96c0-3.13-.67-5.88-2-8.24-1.33-2.41-3.18-4.29-5.55-5.62-2.31-1.34-4.96-2-7.94-2-3.34,0-6.29.85-8.86,2.54-1.65,1.06-3.04,2.47-4.16,4.23-.92-1.58-2.2-2.94-3.85-4.07-2.62-1.8-5.65-2.7-9.09-2.7-3.13,0-5.85.74-8.17,2.23-1.51.97-2.69,2.28-3.54,3.91v-5.22Z"/>
        <path class="cls-3" d="M383.67,65.6h-9.8V24.09h9.8v41.51Z"/>
        <path class="cls-3" d="M392.54,24.08v41.51h10v-24.34c0-1.83.36-3.41,1.07-4.73.71-1.32,1.7-2.34,2.98-3.05,1.27-.76,2.72-1.14,4.35-1.14s3.13.38,4.35,1.14c1.27.71,2.26,1.73,2.98,3.05.71,1.32,1.07,2.9,1.07,4.73v24.34h10v-26.71c0-3.1-.66-5.83-1.98-8.17-1.32-2.39-3.18-4.25-5.57-5.57-2.34-1.32-5.04-1.98-8.09-1.98s-5.55.66-7.78,1.98c-1.68.98-3.01,2.32-3.97,4.03v-5.09h-9.39Z"/>
      </g>
      <path class="cls-1" d="M70.01,48.33c-7.21-3.69-16.83-4.93-22.48-5.35,7.69-.57,22.74-2.66,29.04-10.38C86.43,25.22,85.96.25,85.96.25c0,0-23.66-2.61-33.99,9.17-6.42,6.39-8.41,17.49-8.99,25.22-.58-7.72-2.57-18.83-8.99-25.22C23.66-2.37,0,.25,0,.25,0,.25-.29,15.82,4.44,26.01c2.33,5.02,6.59,9.11,11.51,11.63,7.21,3.69,16.83,4.93,22.48,5.35-5.65.42-15.27,1.66-22.48,5.35-4.92,2.52-9.18,6.61-11.51,11.63C-.29,70.15,0,85.72,0,85.72c0,0,23.66,2.61,33.99-9.17,6.42-6.39,8.41-17.5,8.99-25.22.58,7.72,2.57,18.83,8.99,25.22,10.33,11.78,33.99,9.17,33.99,9.17,0,0,.3-15.57-4.44-25.76-2.33-5.02-6.59-9.11-11.51-11.63ZM70.8,70.17c-.12-.03-12.47-3.55-28.32-24.72-4.65,3.63-16.33,13.23-27.45,26.34l-.5.59.2-.75c.03-.13,3.65-12.85,25.7-29.05-2.13-3.16-7.14-10.43-26.48-27.56l-.43-.38.57.08c.41.06,10.35,1.62,28.51,25.02,0,0,.23.32.65.88,2.56-1.77,9.97-7.03,26.63-25.85l.38-.43-.08.57c-.06.41-1.62,10.3-24.87,28.39,4.39,5.54,13.47,16.24,25.65,26.56l.6.51-.75-.2Z"/>
    </g>
  </g>
</svg>