<svg xmlns="http://www.w3.org/2000/svg" width="72" height="72" viewBox="0 0 72 72" fill="none">
  <path fill-rule="evenodd" clip-rule="evenodd" d="M49.3965 63.8073C45.1448 63.0725 41.5729 61.1958 39.6099 58.5533C37.8581 56.1948 37.4282 53.3007 38.3687 50.1836C38.4783 49.8206 38.8295 49.5851 39.1967 49.5844C39.5756 49.5937 39.9025 49.8549 39.9944 50.2234C40.1122 50.5931 41.1132 51.3169 42.4847 52.0816C38.2704 43.9047 45.2373 35.8946 45.3158 35.8061C45.604 35.4816 46.09 35.4283 46.4414 35.683C46.7929 35.9378 46.8936 36.4164 46.675 36.7912C45.8673 38.1749 45.9553 39.6831 46.1528 40.663C51.1338 36.4263 47.8604 29.1582 47.7106 28.8344C47.5829 28.5574 47.6139 28.2329 47.7931 27.9857C47.9718 27.7384 48.2729 27.6079 48.5728 27.6419C56.1918 28.5222 58.5535 36.2477 59.2435 39.8407C60.1719 38.2829 60.2431 36.2641 60.2438 36.2382C60.2508 35.8926 60.4675 35.5863 60.7915 35.465C61.1153 35.3443 61.4796 35.4323 61.7119 35.6889C65.4737 39.8419 63.6891 47.0025 62.5173 50.4222C64.0311 49.2902 64.748 47.341 64.757 47.3157C64.8583 47.0346 65.1001 46.8279 65.3935 46.7717C65.6846 46.7166 65.9882 46.8197 66.1849 47.0439C67.9354 49.0388 68.0936 53.2776 68.1053 53.7537C67.9277 59.9609 62.4773 63.1948 56.4027 63.9666C57.6016 62.9799 58.3675 61.485 58.3678 59.8148C58.3678 58.3066 56.7134 55.3987 54.715 52.0342C54.3098 51.3527 53.9608 50.7638 53.7323 50.3463C53.5841 50.0757 53.3007 49.9076 52.9921 49.9076C52.6834 49.9076 52.4 50.0758 52.2518 50.3463C52.0235 50.7638 51.6736 51.3523 51.2691 52.0342C49.2707 55.3987 47.6163 58.3066 47.6163 59.8148C47.6163 61.3975 48.3041 62.8227 49.3965 63.8073ZM68.3949 43.0878C68.2303 43.0878 68.0658 43.0392 67.9241 42.9445C67.6682 42.7723 67.5269 42.4747 67.5545 42.168C67.643 41.1994 67.3882 40.5503 67.118 39.8634C66.9043 39.3188 66.683 38.7553 66.6438 38.0662C66.5142 35.7873 67.85 34.1839 70.2167 33.7767C70.5442 33.7199 70.8705 33.86 71.0573 34.1329C71.243 34.4065 71.2523 34.7631 71.0807 35.0454C71.0708 35.066 70.5894 36.0087 71.5188 37.6808C71.9796 38.5112 72.0952 39.3236 71.8625 40.0948C71.4479 41.4669 69.9984 42.3648 68.782 42.9938C68.6602 43.0568 68.5279 43.0878 68.3949 43.0878ZM39.4476 38.9015C39.2831 38.9015 39.1183 38.8528 38.9767 38.758C38.7208 38.5858 38.5796 38.2884 38.607 37.982C38.6955 37.012 38.4408 36.3632 38.1708 35.6769C37.9569 35.1321 37.7356 34.5681 37.6964 33.8788C37.567 31.6 38.9028 29.9965 41.2695 29.5895C41.5976 29.5332 41.9231 29.6727 42.1099 29.9455C42.2957 30.2192 42.305 30.5757 42.1335 30.858C42.1235 30.8786 41.6421 31.8213 42.5709 33.4934C43.0317 34.3239 43.1473 35.1362 42.9146 35.9081C42.5005 37.2792 41.0511 38.1776 39.8352 38.8078C39.7127 38.8699 39.58 38.9015 39.4476 38.9015ZM51.8214 27.7401C51.6569 27.7401 51.4921 27.6914 51.3505 27.5966C51.0946 27.4251 50.9534 27.1275 50.9808 26.8206C51.0693 25.8513 50.8146 25.2028 50.5451 24.5165C50.3307 23.9713 50.1092 23.4077 50.0707 22.7179C49.9411 20.4392 51.2771 18.8358 53.6438 18.4286C53.9722 18.3748 54.2979 18.5118 54.4842 18.7853C54.6699 19.0581 54.6791 19.4148 54.5076 19.6976C54.4976 19.7175 54.0162 20.6606 54.945 22.3327C55.406 23.1631 55.5214 23.976 55.2888 24.7473C54.8743 26.1195 53.4246 27.0174 52.2083 27.6464C52.0871 27.709 51.9544 27.7401 51.8214 27.7401ZM62.9383 34.7862C62.7739 34.7862 62.6092 34.7373 62.4675 34.6427C62.2116 34.4711 62.0703 34.1736 62.0979 33.8667C62.1864 32.8972 61.9317 32.2486 61.6615 31.5614C61.4478 31.0168 61.2264 30.4533 61.1872 29.764C61.0577 27.4847 62.3936 25.8812 64.7603 25.474C65.0883 25.4202 65.4139 25.5572 65.6008 25.8307C65.7864 26.1042 65.7957 26.4609 65.6242 26.743C65.6142 26.7636 65.1328 27.7063 66.0616 29.3784C66.5224 30.209 66.638 31.0214 66.4053 31.7932C65.9912 33.1649 64.5418 34.0628 63.3259 34.6922C63.2037 34.7551 63.0707 34.7862 62.9383 34.7862ZM58.7742 26.8375C58.6098 26.8375 58.4451 26.7889 58.3034 26.6942C58.0475 26.5225 57.9064 26.2244 57.9344 25.918C58.0586 24.548 57.7043 23.6468 57.3295 22.6923C57.0502 21.9824 56.7619 21.2479 56.7121 20.3683C56.6513 19.2826 56.7976 15.679 61.2697 14.9099C61.5972 14.855 61.9239 14.9936 62.1102 15.2666C62.296 15.5395 62.3053 15.8962 62.1338 16.179C62.1102 16.2228 61.3775 17.5993 62.7151 20.0068C63.2948 21.0512 63.4418 22.0661 63.1525 23.0241C62.6278 24.7624 60.7438 25.9249 59.1614 26.743C59.0396 26.806 58.9065 26.8375 58.7742 26.8375ZM31.0094 56.2517C28.1748 56.2517 25.8692 53.9455 25.8692 51.1108C25.8692 48.2762 28.1755 45.9706 31.0094 45.9706C33.8434 45.9706 36.1497 48.2769 36.1497 51.1108C36.1497 53.9448 33.8441 56.2517 31.0094 56.2517ZM30.9812 43.7836C28.1625 43.7836 25.8692 41.4902 25.8692 38.6715L25.8689 24.8192C25.8689 22.0005 28.1623 19.7071 30.9811 19.7071C33.7998 19.7071 36.0932 22.0005 36.0932 24.8192V38.6713C36.0934 41.4902 33.7999 43.7836 30.9812 43.7836ZM44.4488 64.1388H9.82599C6.25222 64.1142 3.07849 62.2769 1.33054 59.2249C-0.43401 56.1443 -0.435841 52.4834 1.32589 49.4328L22.515 12.7317C24.2591 9.71126 27.5166 7.83496 31.0157 7.83496C34.5151 7.83496 37.7719 9.71128 39.5155 12.7317L47.3114 26.2344C46.9665 26.4132 46.6616 26.6716 46.4265 26.9966C45.8901 27.7379 45.7954 28.711 46.179 29.5417C46.6993 30.6684 47.0656 32.2106 47.1754 33.4324C47.1978 33.6824 47.2116 33.9308 47.2159 34.1769C46.7129 33.8846 46.1385 33.783 45.589 33.8614L34.9208 15.3849C34.1221 14.0004 32.6257 13.1407 31.0158 13.1407C29.4053 13.1407 27.9083 14.0004 27.1094 15.3844L5.92028 52.0858C5.11041 53.489 5.11141 55.1676 5.92377 56.5744C6.74012 57.9889 8.19913 58.8327 9.82668 58.8327H37.7605C37.9138 59.0786 38.0787 59.321 38.2557 59.5593C39.7995 61.6377 41.9993 63.1311 44.4488 64.1388Z" fill="#F25F67"/>
</svg>