<svg width="28" height="28" viewBox="0 0 28 28" fill="none" xmlns="http://www.w3.org/2000/svg">
<path d="M19.25 16.3333H19.2617M3.5 5.83333V22.1667C3.5 23.4553 4.54467 24.5 5.83333 24.5H22.1667C23.4553 24.5 24.5 23.4553 24.5 22.1667V10.5C24.5 9.21134 23.4553 8.16667 22.1667 8.16667L5.83333 8.16667C4.54467 8.16667 3.5 7.122 3.5 5.83333ZM3.5 5.83333C3.5 4.54467 4.54467 3.5 5.83333 3.5H19.8333M19.8333 16.3333C19.8333 16.6555 19.5722 16.9167 19.25 16.9167C18.9278 16.9167 18.6667 16.6555 18.6667 16.3333C18.6667 16.0112 18.9278 15.75 19.25 15.75C19.5722 15.75 19.8333 16.0112 19.8333 16.3333Z" stroke="#20343E" stroke-width="1.5" stroke-linecap="round" stroke-linejoin="round"/>
</svg>
