<?xml version="1.0" ?>
<!-- Uploaded to: SVG Repo, www.svgrepo.com, Generator: SVG Repo Mixer Tools -->
<svg width="800px" height="800px" viewBox="0 0 512 512" version="1.1" xml:space="preserve" xmlns="http://www.w3.org/2000/svg" xmlns:xlink="http://www.w3.org/1999/xlink">
<style type="text/css">
	.st0{display:none;}
	.st1{display:inline;}
	.st2{fill:none;stroke:#B3B3B3;stroke-miterlimit:10;}
	.st3{fill:none;stroke:#ED1C24;stroke-miterlimit:10;}
	.st4{fill:#F9C04A;}
	.st5{fill:#FFFFFF;stroke:#000000;stroke-width:10;stroke-linecap:round;stroke-linejoin:round;stroke-miterlimit:10;}
	.st6{fill:#DEF6FC;}
	.st7{fill:#FFDA9F;}
	.st8{fill:#FFFFFF;}
	.st9{fill:#FF5751;}
	.st10{fill:#FF908A;}
	.st11{fill:#133260;}
	.st12{fill:#7782BB;}
	.st13{fill:#96A5D6;}
	.st14{fill:#FF5741;}
	.st15{fill:#43527A;}
	.st16{fill:#5E7296;}
	.st17{fill:#83D689;}
	.st18{fill:#B5F4B8;}
	.st19{fill:#9BC5FF;}
	.st20{fill:#B8D8FF;}
	.st21{fill:#F24133;}
	.st22{fill:#589FFF;}
	.st23{fill:#7180BC;}
	.st24{fill:#93A3D8;}
	.st25{fill:#FF8103;}
	.st26{fill:#FF9D4D;}
	.st27{fill:#BC8D66;}
	.st28{fill:#CEA282;}
	.st29{fill:#FFDDA1;}
	.st30{fill:#FFF1DC;}
	.st31{fill:#7F6674;}
	.st32{fill:#937A89;}
	.st33{fill:#04398E;}
	.st34{fill:#A6D1FF;}
	.st35{fill:#EAA62D;}
	.st36{fill:#C5DFFF;}
	.st37{fill:#D6A47F;}
	.st38{fill:#99A4D6;}
</style>
<g class="st0" id="Layer_31">
<g class="st1">
<g>
<g>
<ellipse class="st2" cx="256" cy="256" rx="248.1" ry="248.3"/>
<path class="st2" d="M398.8,504.5H113.2c-18.8,0-34.1-15.3-34.1-34.1V41.6c0-18.8,15.3-34.1,34.1-34.1h285.5      c18.8,0,34.1,15.3,34.1,34.1v428.9C432.9,489.3,417.6,504.5,398.8,504.5z"/>
<path class="st2" d="M7.9,399.8V112.2c0-16.4,13.3-29.8,29.8-29.8h436.7c16.4,0,29.8,13.3,29.8,29.8v287.6      c0,16.4-13.3,29.8-29.8,29.8H37.6C21.2,429.6,7.9,416.2,7.9,399.8z"/>
<path class="st2" d="M440.4,469.9H71.6c-16.4,0-29.8-13.3-29.8-29.8V71.9c0-16.4,13.3-29.8,29.8-29.8h368.8      c16.4,0,29.8,13.3,29.8,29.8v368.2C470.2,456.5,456.8,469.9,440.4,469.9z"/>
</g>
<rect class="st3" height="497" transform="matrix(-1.836970e-16 1 -1 -1.836970e-16 512 5.684342e-14)" width="497" x="7.5" y="7.5"/>
</g>
</g>
</g>
<g id="Layer_32">
<g>
<g>
<g>
<g>
<circle class="st25" cx="256" cy="256" r="248.5"/>
<path class="st26" d="M32.4,256c0-133.1,104.6-241.7,236-248.2c-4.1-0.2-8.3-0.3-12.5-0.3C118.7,7.5,7.5,118.7,7.5,256       S118.7,504.5,256,504.5c4.2,0,8.3-0.1,12.5-0.3C137,497.7,32.4,389.1,32.4,256z"/>
<circle class="st4" cx="256" cy="256" r="195.9"/>
<path class="st7" d="M85,256c0-104,81.1-189.1,183.4-195.5c-4.1-0.3-8.3-0.4-12.5-0.4C147.8,60.1,60.1,147.8,60.1,256       S147.8,451.9,256,451.9c4.2,0,8.3-0.1,12.5-0.4C166.1,445.1,85,360,85,256z"/>
</g>
<g>
<path class="st11" d="M253.9,342.7c-35.5,0-54.8-20.4-54.8-29.1c0-3.6,3.4-7.8,6.4-7.8c5.9,0,11.2,23.2,48.4,23.5v-88       c-24.3-8.1-49.8-15.9-49.8-51.7c0-35.2,26.6-45.3,49.8-46.7v-8.7c0-2.5,2.5-5,5.9-5c2.8,0,5.6,2.5,5.6,5v8.4       c20.7,0.6,41.1,8.1,41.1,15.7c0,2.8-2.8,8.1-6.4,8.1c-4.2,0-13.1-9.2-34.7-10.3v74.3c22.9,8.1,46.1,19.6,46.1,58.1       c0,33.5-18.7,50.3-46.1,53.7v11.2c0,2.5-2.8,5-5.6,5c-3.4,0-5.9-2.5-5.9-5V342.7z M254.5,226.4V156c-19,1.4-36.9,8.9-36.9,32.1       C217.6,212.5,234.9,219.7,254.5,226.4z M265.1,245.4v83c21.2-3.1,32.7-16.2,32.7-38.9C297.8,262.8,282.7,252.7,265.1,245.4z"/>
</g>
</g>
<g>
<g>
<g>
<g>
<path class="st11" d="M407.2,109.3c-1.2,0-2.3-0.4-3.2-1.3c-1.8-1.8-1.8-4.6,0-6.4l11.5-11.5c1.8-1.8,4.6-1.8,6.4,0         c1.8,1.8,1.8,4.6,0,6.4L410.4,108C409.5,108.9,408.3,109.3,407.2,109.3z"/>
</g>
<g>
<path class="st11" d="M93.3,423.2c-1.2,0-2.3-0.4-3.2-1.3c-1.8-1.8-1.8-4.6,0-6.4l11.5-11.5c1.8-1.8,4.6-1.8,6.4,0         c1.8,1.8,1.8,4.6,0,6.4l-11.5,11.5C95.6,422.8,94.4,423.2,93.3,423.2z"/>
</g>
</g>
<g>
<g>
<path class="st11" d="M418.7,423.2c-1.2,0-2.3-0.4-3.2-1.3L404,410.4c-1.8-1.8-1.8-4.6,0-6.4c1.8-1.8,4.6-1.8,6.4,0         l11.5,11.5c1.8,1.8,1.8,4.6,0,6.4C421,422.8,419.9,423.2,418.7,423.2z"/>
</g>
<g>
<path class="st11" d="M104.8,109.3c-1.2,0-2.3-0.4-3.2-1.3L90.1,96.5c-1.8-1.8-1.8-4.6,0-6.4c1.8-1.8,4.6-1.8,6.4,0         l11.5,11.5c1.8,1.8,1.8,4.6,0,6.4C107.1,108.9,106,109.3,104.8,109.3z"/>
</g>
</g>
</g>
<g>
<g>
<g>
<path class="st11" d="M486.1,260.5h-16.3c-2.5,0-4.5-2-4.5-4.5s2-4.5,4.5-4.5h16.3c2.5,0,4.5,2,4.5,4.5         S488.6,260.5,486.1,260.5z"/>
</g>
<g>
<path class="st11" d="M42.2,260.5H25.9c-2.5,0-4.5-2-4.5-4.5s2-4.5,4.5-4.5h16.3c2.5,0,4.5,2,4.5,4.5S44.7,260.5,42.2,260.5z         "/>
</g>
</g>
<g>
<g>
<path class="st11" d="M256,490.6c-2.5,0-4.5-2-4.5-4.5v-16.3c0-2.5,2-4.5,4.5-4.5s4.5,2,4.5,4.5v16.3         C260.5,488.6,258.5,490.6,256,490.6z"/>
</g>
<g>
<path class="st11" d="M256,46.7c-2.5,0-4.5-2-4.5-4.5V25.9c0-2.5,2-4.5,4.5-4.5s4.5,2,4.5,4.5v16.3         C260.5,44.7,258.5,46.7,256,46.7z"/>
</g>
</g>
</g>
</g>
</g>
<g>
<g>
<path class="st11" d="M256,509c-67.6,0-131.1-26.3-178.9-74.1C29.3,387.1,3,323.6,3,256S29.3,124.9,77.1,77.1      C124.9,29.3,188.4,3,256,3s131.1,26.3,178.9,74.1C482.7,124.9,509,188.4,509,256s-26.3,131.1-74.1,178.9      C387.1,482.7,323.6,509,256,509z M256,12c-65.2,0-126.5,25.4-172.5,71.5C37.4,129.5,12,190.8,12,256s25.4,126.5,71.5,172.5      C129.5,474.6,190.8,500,256,500s126.5-25.4,172.5-71.5C474.6,382.5,500,321.2,500,256s-25.4-126.5-71.5-172.5      C382.5,37.4,321.2,12,256,12z"/>
</g>
<g>
<path class="st11" d="M256,456.4c-110.5,0-200.4-89.9-200.4-200.4S145.5,55.6,256,55.6S456.4,145.5,456.4,256      S366.5,456.4,256,456.4z M256,64.6C150.5,64.6,64.6,150.5,64.6,256S150.5,447.4,256,447.4S447.4,361.5,447.4,256      S361.5,64.6,256,64.6z"/>
</g>
</g>
</g>
</g>
</svg>