<svg width="28" height="28" viewBox="0 0 28 28" fill="none" xmlns="http://www.w3.org/2000/svg">
<path fill-rule="evenodd" clip-rule="evenodd" d="M1.5 1.57239H5.1936C9.24137 1.57239 12.6808 4.17684 13.9276 7.80138C15.1744 4.17684 18.6139 1.57239 22.6616 1.57239H26.3552V5.26599C26.3552 9.31374 23.7508 12.7532 20.1263 14C23.7508 15.2468 26.3552 18.6863 26.3552 22.734V26.4276H22.6616C18.6139 26.4276 15.1744 23.8232 13.9276 20.1987C12.6808 23.8232 9.24139 26.4276 5.19364 26.4276H1.50004V22.734C1.50004 18.6863 4.10447 15.2468 7.72899 14C4.10445 12.7532 1.5 9.31375 1.5 5.26599V1.57239Z" fill="url(#paint0_linear_152_2382)"/>
<path fill-rule="evenodd" clip-rule="evenodd" d="M1.5 1.57239H5.1936C9.24137 1.57239 12.6808 4.17684 13.9276 7.80138C15.1744 4.17684 18.6139 1.57239 22.6616 1.57239H26.3552V5.26599C26.3552 9.31374 23.7508 12.7532 20.1263 14C23.7508 15.2468 26.3552 18.6863 26.3552 22.734V26.4276H22.6616C18.6139 26.4276 15.1744 23.8232 13.9276 20.1987C12.6808 23.8232 9.24139 26.4276 5.19364 26.4276H1.50004V22.734C1.50004 18.6863 4.10447 15.2468 7.72899 14C4.10445 12.7532 1.5 9.31375 1.5 5.26599V1.57239Z" fill="#64C756" fill-opacity="0.4"/>
<path fill-rule="evenodd" clip-rule="evenodd" d="M1.5 1.57239H5.1936C9.24137 1.57239 12.6808 4.17684 13.9276 7.80138C15.1744 4.17684 18.6139 1.57239 22.6616 1.57239H26.3552V5.26599C26.3552 9.31374 23.7508 12.7532 20.1263 14C23.7508 15.2468 26.3552 18.6863 26.3552 22.734V26.4276H22.6616C18.6139 26.4276 15.1744 23.8232 13.9276 20.1987C12.6808 23.8232 9.24139 26.4276 5.19364 26.4276H1.50004V22.734C1.50004 18.6863 4.10447 15.2468 7.72899 14C4.10445 12.7532 1.5 9.31375 1.5 5.26599V1.57239Z" fill="white"/>
<path d="M1.5 1.57239V0.572388H0.5V1.57239H1.5ZM13.9276 7.80138L12.982 8.12666L13.9276 10.8757L14.8732 8.12666L13.9276 7.80138ZM26.3552 1.57239H27.3552V0.572388H26.3552V1.57239ZM20.1263 14L19.801 13.0544L17.052 14L19.801 14.9456L20.1263 14ZM26.3552 26.4276V27.4276H27.3552V26.4276H26.3552ZM13.9276 20.1987L14.8733 19.8734L13.9276 17.1245L12.982 19.8734L13.9276 20.1987ZM1.50004 26.4276H0.500038V27.4276H1.50004V26.4276ZM7.72899 14L8.05427 14.9456L10.8032 14L8.05427 13.0544L7.72899 14ZM5.1936 0.572388H1.5V2.57239H5.1936V0.572388ZM14.8732 7.4761C13.4919 3.46029 9.68128 0.572388 5.1936 0.572388V2.57239C8.80146 2.57239 11.8698 4.89339 12.982 8.12666L14.8732 7.4761ZM22.6616 0.572388C18.174 0.572388 14.3634 3.46029 12.982 7.4761L14.8732 8.12666C15.9854 4.89339 19.0538 2.57239 22.6616 2.57239V0.572388ZM26.3552 0.572388H22.6616V2.57239H26.3552V0.572388ZM27.3552 5.26599V1.57239H25.3552V5.26599H27.3552ZM20.4516 14.9456C24.4674 13.5642 27.3552 9.75365 27.3552 5.26599H25.3552C25.3552 8.87384 23.0342 11.9422 19.801 13.0544L20.4516 14.9456ZM19.801 14.9456C23.0342 16.0578 25.3552 19.1262 25.3552 22.734H27.3552C27.3552 18.2463 24.4674 14.4358 20.4516 13.0544L19.801 14.9456ZM25.3552 22.734V26.4276H27.3552V22.734H25.3552ZM26.3552 25.4276H22.6616V27.4276H26.3552V25.4276ZM22.6616 25.4276C19.0538 25.4276 15.9855 23.1066 14.8733 19.8734L12.982 20.524C14.3634 24.5397 18.174 27.4276 22.6616 27.4276V25.4276ZM5.19364 27.4276C9.68129 27.4276 13.4919 24.5397 14.8733 20.524L12.982 19.8734C11.8698 23.1066 8.80148 25.4276 5.19364 25.4276V27.4276ZM1.50004 27.4276H5.19364V25.4276H1.50004V27.4276ZM0.500038 22.734V26.4276H2.50004V22.734H0.500038ZM7.4037 13.0544C3.38791 14.4358 0.500038 18.2464 0.500038 22.734H2.50004C2.50004 19.1262 4.82103 16.0578 8.05427 14.9456L7.4037 13.0544ZM0.5 5.26599C0.5 9.75366 3.38789 13.5642 7.4037 14.9456L8.05427 13.0544C4.821 11.9422 2.5 8.87384 2.5 5.26599H0.5ZM0.5 1.57239V5.26599H2.5V1.57239H0.5Z" fill="#20343E"/>
<defs>
<linearGradient id="paint0_linear_152_2382" x1="1.36042" y1="1.36632" x2="26.5549" y2="26.4557" gradientUnits="userSpaceOnUse">
<stop offset="0.2" stop-color="#00FF85"/>
<stop offset="1" stop-color="#00E0FF"/>
</linearGradient>
</defs>
</svg>
