<svg width="30" height="30" viewBox="0 0 30 30" fill="none" xmlns="http://www.w3.org/2000/svg">
<path fill-rule="evenodd" clip-rule="evenodd" d="M1 1.32962H5.06297C9.5155 1.32962 13.2989 4.19451 14.6704 8.18149C16.0419 4.19452 19.8253 1.32964 24.2778 1.32964H28.3407V5.39261C28.3407 9.84514 25.4759 13.6285 21.4889 15C25.4759 16.3715 28.3407 20.1549 28.3407 24.6074V28.6704H24.2778C19.8253 28.6704 16.0419 25.8055 14.6704 21.8185C13.2989 25.8055 9.5155 28.6704 5.06297 28.6704H1V24.6074C1 20.1549 3.8649 16.3715 7.85189 15C3.8649 13.6285 1 9.84513 1 5.39258V1.32962Z" fill="url(#paint0_linear_243_2340)"/>
<path fill-rule="evenodd" clip-rule="evenodd" d="M1 1.32962H5.06297C9.5155 1.32962 13.2989 4.19451 14.6704 8.18149C16.0419 4.19452 19.8253 1.32964 24.2778 1.32964H28.3407V5.39261C28.3407 9.84514 25.4759 13.6285 21.4889 15C25.4759 16.3715 28.3407 20.1549 28.3407 24.6074V28.6704H24.2778C19.8253 28.6704 16.0419 25.8055 14.6704 21.8185C13.2989 25.8055 9.5155 28.6704 5.06297 28.6704H1V24.6074C1 20.1549 3.8649 16.3715 7.85189 15C3.8649 13.6285 1 9.84513 1 5.39258V1.32962Z" fill="#64C756" fill-opacity="0.4"/>
<path d="M1 1.32962V0.57962H0.25V1.32962H1ZM14.6704 8.18149L13.9612 8.42546L14.6704 10.4872L15.3796 8.42546L14.6704 8.18149ZM28.3407 1.32964H29.0907V0.579645H28.3407V1.32964ZM21.4889 15L21.2449 14.2908L19.1832 15L21.2449 15.7092L21.4889 15ZM28.3407 28.6704V29.4204H29.0907V28.6704H28.3407ZM14.6704 21.8185L15.3796 21.5746L14.6704 19.5128L13.9612 21.5746L14.6704 21.8185ZM1 28.6704H0.25V29.4204H1V28.6704ZM7.85189 15L8.09585 15.7092L10.1576 15L8.09585 14.2908L7.85189 15ZM5.06297 0.57962H1V2.07962H5.06297V0.57962ZM15.3796 7.93753C13.9072 3.65709 9.84543 0.57962 5.06297 0.57962V2.07962C9.18557 2.07962 12.6906 4.73193 13.9612 8.42546L15.3796 7.93753ZM24.2778 0.579645C19.4953 0.579645 15.4336 3.65711 13.9612 7.93753L15.3796 8.42546C16.6501 4.73194 20.1552 2.07964 24.2778 2.07964V0.579645ZM28.3407 0.579645H24.2778V2.07964H28.3407V0.579645ZM29.0907 5.39261V1.32964H27.5907V5.39261H29.0907ZM21.7328 15.7092C26.0133 14.2368 29.0907 10.1751 29.0907 5.39261H27.5907C27.5907 9.51521 24.9384 13.0203 21.2449 14.2908L21.7328 15.7092ZM21.2449 15.7092C24.9384 16.9798 27.5907 20.4848 27.5907 24.6074H29.0907C29.0907 19.825 26.0133 15.7632 21.7328 14.2908L21.2449 15.7092ZM27.5907 24.6074V28.6704H29.0907V24.6074H27.5907ZM28.3407 27.9204H24.2778V29.4204H28.3407V27.9204ZM24.2778 27.9204C20.1552 27.9204 16.6501 25.2681 15.3796 21.5746L13.9612 22.0625C15.4336 26.3429 19.4953 29.4204 24.2778 29.4204V27.9204ZM5.06297 29.4204C9.84543 29.4204 13.9072 26.3429 15.3796 22.0625L13.9612 21.5746C12.6906 25.2681 9.18557 27.9204 5.06297 27.9204V29.4204ZM1 29.4204H5.06297V27.9204H1V29.4204ZM0.25 24.6074V28.6704H1.75V24.6074H0.25ZM7.60793 14.2908C3.32748 15.7632 0.25 19.825 0.25 24.6074H1.75C1.75 20.4848 4.40231 16.9797 8.09585 15.7092L7.60793 14.2908ZM0.25 5.39258C0.25 10.1751 3.32748 14.2368 7.60793 15.7092L8.09585 14.2908C4.40231 13.0203 1.75 9.5152 1.75 5.39258H0.25ZM0.25 1.32962V5.39258H1.75V1.32962H0.25Z" fill="white"/>
<defs>
<linearGradient id="paint0_linear_243_2340" x1="0.846458" y1="1.10294" x2="28.5604" y2="28.7013" gradientUnits="userSpaceOnUse">
<stop offset="0.2" stop-color="#00FF85"/>
<stop offset="1" stop-color="#00E0FF"/>
</linearGradient>
</defs>
</svg>
