<svg width="25" height="26" viewBox="0 0 25 26" fill="none" xmlns="http://www.w3.org/2000/svg">
<mask id="path-1-inside-1_33_11295" fill="white">
<path fill-rule="evenodd" clip-rule="evenodd" d="M0.0722656 0.572388H3.76587C7.81363 0.572388 11.2531 3.17684 12.4999 6.80138C13.7467 3.17684 17.1861 0.572388 21.2339 0.572388H24.9275V4.26599C24.9275 8.31374 22.3231 11.7532 18.6985 13C22.3231 14.2468 24.9275 17.6863 24.9275 21.734V25.4276H21.2339C17.1862 25.4276 13.7467 22.8232 12.4999 19.1987C11.2531 22.8232 7.81365 25.4276 3.76591 25.4276H0.0723038L0.0723038 21.734C0.0723038 17.6863 2.67673 14.2468 6.30125 13C2.67671 11.7532 0.0722656 8.31375 0.0722656 4.26599L0.0722656 0.572388Z"/>
</mask>
<path d="M0.0722656 0.572388V-1.42761H-1.92773V0.572388H0.0722656ZM12.4999 6.80138L10.6087 7.45194L12.4999 12.9499L14.3911 7.45194L12.4999 6.80138ZM24.9275 0.572388H26.9275V-1.42761H24.9275V0.572388ZM18.6985 13L18.048 11.1088L12.55 13L18.048 14.8912L18.6985 13ZM24.9275 25.4276V27.4276H26.9275V25.4276H24.9275ZM12.4999 19.1987L14.3911 18.5481L12.4999 13.0502L10.6087 18.5481L12.4999 19.1987ZM0.0723038 25.4276H-1.9277V27.4276H0.0723038L0.0723038 25.4276ZM6.30125 13L6.95182 14.8912L12.4498 13L6.95181 11.1088L6.30125 13ZM3.76587 -1.42761H0.0722656V2.57239H3.76587V-1.42761ZM14.3911 6.15082C12.8751 1.74373 8.69345 -1.42761 3.76587 -1.42761V2.57239C6.93382 2.57239 9.63104 4.60995 10.6087 7.45194L14.3911 6.15082ZM21.2339 -1.42761C16.3063 -1.42761 12.1246 1.74373 10.6087 6.15082L14.3911 7.45194C15.3687 4.60995 18.066 2.57239 21.2339 2.57239V-1.42761ZM24.9275 -1.42761H21.2339V2.57239H24.9275V-1.42761ZM26.9275 4.26599V0.572388H22.9275V4.26599H26.9275ZM19.3491 14.8912C23.7562 13.3752 26.9275 9.19356 26.9275 4.26599H22.9275C22.9275 7.43393 20.89 10.1312 18.048 11.1088L19.3491 14.8912ZM18.048 14.8912C20.89 15.8688 22.9275 18.5661 22.9275 21.734H26.9275C26.9275 16.8064 23.7562 12.6248 19.3491 11.1088L18.048 14.8912ZM22.9275 21.734V25.4276H26.9275V21.734H22.9275ZM24.9275 23.4276H21.2339V27.4276H24.9275V23.4276ZM21.2339 23.4276C18.066 23.4276 15.3688 21.3901 14.3911 18.5481L10.6087 19.8492C12.1247 24.2563 16.3063 27.4276 21.2339 27.4276V23.4276ZM3.76591 27.4276C8.69346 27.4276 12.8751 24.2563 14.3911 19.8492L10.6087 18.5481C9.63105 21.3901 6.93384 23.4276 3.76591 23.4276V27.4276ZM0.0723038 27.4276H3.76591V23.4276H0.0723038L0.0723038 27.4276ZM-1.9277 21.734V25.4276H2.0723V21.734H-1.9277ZM5.65068 11.1088C1.24362 12.6248 -1.9277 16.8064 -1.9277 21.734H2.0723C2.0723 18.5661 4.10985 15.8689 6.95182 14.8912L5.65068 11.1088ZM-1.92773 4.26599C-1.92773 9.19357 1.2436 13.3753 5.65069 14.8912L6.95181 11.1088C4.10983 10.1312 2.07227 7.43394 2.07227 4.26599H-1.92773ZM-1.92773 0.572388V4.26599H2.07227V0.572388H-1.92773Z" fill="#20343E" mask="url(#path-1-inside-1_33_11295)"/>
</svg>
